<svg xmlns="http://www.w3.org/2000/svg" fill-rule="evenodd" stroke-linecap="round" stroke-miterlimit="3" clip-rule="evenodd" viewBox="0 0 1500 1500"><rect width="1500" height="1500" fill="none"/><path fill="#ffc039" d="M1817.85,760L2936.83,760C2942.35,760 2946.83,755.519 2946.83,750C2946.83,744.481 2942.35,740 2936.83,740L1817.85,740C1812.33,740 1807.85,744.481 1807.85,750C1807.85,755.519 1812.33,760 1817.85,760Z" transform="translate(-1781.16 43.22)"/><path fill="#ffc039" d="M2849.82,760L2936.83,760C2942.35,760 2946.83,755.519 2946.83,750C2946.83,744.481 2942.35,740 2936.83,740L2849.82,740C2844.3,740 2839.82,744.481 2839.82,750C2839.82,755.519 2844.3,760 2849.82,760Z" transform="translate(-1544.16 43.22)"/><path fill="#ffc039" d="M1890.12,788.916L3153.82,788.916C3167.7,788.916 3181.01,783.401 3190.83,773.584C3200.65,763.767 3206.16,750.452 3206.16,736.568C3206.16,736.567 3206.16,736.566 3206.16,736.564C3206.16,722.681 3200.65,709.366 3190.83,699.549C3181.01,689.732 3167.7,684.216 3153.82,684.216C3132.23,684.216 3110.48,684.216 3110.48,684.216C3104.96,684.216 3100.48,688.697 3100.48,694.216C3100.48,699.735 3104.96,704.216 3110.48,704.216C3110.48,704.216 3132.23,704.216 3153.82,704.216C3162.39,704.216 3170.62,707.624 3176.69,713.691C3182.76,719.757 3186.16,727.985 3186.16,736.564L3186.16,736.568C3186.16,745.147 3182.76,753.375 3176.69,759.442C3170.62,765.508 3162.39,768.916 3153.82,768.916L1890.12,768.916C1884.6,768.916 1880.12,773.397 1880.12,778.916C1880.12,784.435 1884.6,788.916 1890.12,788.916Z" transform="translate(-1713.35 -99.762)"/><path fill="#ffc039" d="M3117.18,997.049L1851.6,997.049C1846.08,997.049 1841.6,1001.53 1841.6,1007.05C1841.6,1012.57 1846.08,1017.05 1851.6,1017.05L3117.18,1017.05C3136.06,1017.05 3151.37,1032.36 3151.37,1051.24L3151.37,1051.24C3151.37,1070.13 3136.06,1085.44 3117.18,1085.44L3071.95,1085.44C3066.43,1085.44 3061.95,1089.92 3061.95,1095.44C3061.95,1100.95 3066.43,1105.44 3071.95,1105.44L3117.18,1105.44C3147.11,1105.44 3171.37,1081.17 3171.37,1051.24L3171.37,1051.24C3171.37,1021.31 3147.11,997.049 3117.18,997.049Z" transform="translate(-1713.35 -99.762)"/><path fill="#e5ecef" d="M7639.96,1212.96L7639.96,1212.96C7639.96,1242.95 7664.28,1267.27 7694.27,1267.27C7852.16,1267.27 8309.89,1267.27 8467.78,1267.27C8497.77,1267.27 8522.09,1242.95 8522.09,1212.96L8522.09,1212.96L8607.42,1212.96C8621.82,1212.96 8635.64,1207.24 8645.82,1197.05C8656.01,1186.87 8661.73,1173.06 8661.73,1158.65L8661.73,1158.65C8661.73,1144.25 8656.01,1130.43 8645.82,1120.25C8635.64,1110.07 8621.82,1104.35 8607.42,1104.35L7393.47,1104.35C7379.07,1104.35 7365.26,1110.07 7355.07,1120.25C7344.89,1130.43 7339.17,1144.25 7339.17,1158.65L7339.17,1158.65C7339.17,1173.06 7344.89,1186.87 7355.07,1197.05C7365.26,1207.24 7379.07,1212.96 7393.47,1212.96L7639.96,1212.96Z" transform="translate(-7250.45)"/><path fill="none" stroke="#72a3b8" stroke-width="4" d="M7639.96,1212.96L7639.96,1212.96C7639.96,1242.95 7664.28,1267.27 7694.27,1267.27C7852.16,1267.27 8309.89,1267.27 8467.78,1267.27C8497.77,1267.27 8522.09,1242.95 8522.09,1212.96L8522.09,1212.96L8607.42,1212.96C8621.82,1212.96 8635.64,1207.24 8645.82,1197.05C8656.01,1186.87 8661.73,1173.06 8661.73,1158.65L8661.73,1158.65C8661.73,1144.25 8656.01,1130.43 8645.82,1120.25C8635.64,1110.07 8621.82,1104.35 8607.42,1104.35L7393.47,1104.35C7379.07,1104.35 7365.26,1110.07 7355.07,1120.25C7344.89,1130.43 7339.17,1144.25 7339.17,1158.65L7339.17,1158.65C7339.17,1173.06 7344.89,1186.87 7355.07,1197.05C7365.26,1207.24 7379.07,1212.96 7393.47,1212.96L7639.96,1212.96Z" transform="translate(-7260.1 46.716)"/><rect width="902.609" height="852.084" x="2027.66" y="500.256" fill="#39917d" transform="matrix(.82766 -.04423 .0456 .85337 -1196.37 97.168)"/><rect width="902.609" height="852.084" x="2027.66" y="500.256" fill="#48d085" transform="matrix(.82766 -.04423 .0456 .85337 -1491.6 112.945)"/><path fill="#39917d" d="M7737.91,421.798C7742.94,440.063 7745.62,459.307 7745.62,479.174C7745.62,598.35 7648.87,695.106 7529.69,695.106C7512.08,695.106 7494.95,692.992 7478.56,689.005L7478.56,421.798L7737.91,421.798Z" transform="translate(-7250.45)"/><path fill="#fff" d="M750,365.436C750,354.75 745.913,344.502 738.637,336.946C731.362,329.39 721.494,325.145 711.205,325.145C587.098,325.145 200.663,325.145 76.556,325.145C66.267,325.145 56.399,329.39 49.124,336.946C41.848,344.502 37.761,354.75 37.761,365.436C37.761,455.503 37.761,672.29 37.761,762.357C37.761,773.043 41.848,783.291 49.124,790.847C56.399,798.403 66.267,802.648 76.556,802.648C200.663,802.648 587.098,802.648 711.205,802.648C721.494,802.648 731.362,798.403 738.637,790.847C745.913,783.291 750,773.043 750,762.357C750,672.29 750,455.503 750,365.436Z" transform="matrix(.32995 -.01763 .01698 .3177 263.146 876.129)"/><path fill="#fff" d="M8054.07,619.063L7987.52,716.863C7981.08,726.322 7980.99,738.043 7987.28,747.575C7993.56,757.108 8005.27,762.992 8017.94,762.992C8055.3,762.992 8113.71,762.992 8151.06,762.992C8163.74,762.992 8175.44,757.108 8181.73,747.575C8188.02,738.043 8187.93,726.322 8181.49,716.864C8162.71,689.265 8133.51,646.355 8114.93,619.063C8108.58,609.732 8097.01,604.005 8084.5,604.005C8072,604.005 8060.43,609.732 8054.07,619.063ZM8079.92,632.257C8080.88,630.851 8082.62,629.988 8084.5,629.988C8086.39,629.988 8088.13,630.851 8089.09,632.257C8089.09,632.257 8155.65,730.058 8155.65,730.058C8156.62,731.483 8156.63,733.249 8155.69,734.685C8154.74,736.122 8152.97,737.008 8151.06,737.008L8017.94,737.008C8016.03,737.008 8014.27,736.122 8013.32,734.685C8012.38,733.249 8012.39,731.483 8013.36,730.058L8079.92,632.257Z" transform="matrix(.99857 -.05336 .06161 1.15294 -7307.72 213.469)"/><rect width="121.699" height="30" x="8000.45" y="1109" fill="#fff" transform="rotate(-3.059 338.324 145494.023)"/><rect width="5.251" height="631.555" x="2808.84" y="604.108" fill="#015e5e" transform="rotate(-3.061 -3247.409 39588.837) scale(1.14274)"/><circle cx="8345.19" cy="385.344" r="215.932" fill="#fc743e" transform="translate(-8065.94 36.453)"/><path fill="#ffc039" d="M7644.1,558.137C7672.27,521.56 7728.61,521.56 7756.79,541.632C7784.96,561.704 7784.96,601.848 7756.79,641.991C7737.07,672.099 7686.36,702.207 7644.1,722.279C7601.85,702.207 7551.14,672.099 7531.42,641.991C7503.25,601.848 7503.25,561.704 7531.42,541.632C7559.59,521.56 7615.93,521.56 7644.1,558.137Z" transform="matrix(.90734 0 0 1.13609 -6656.59 -275.148)"/><path fill="#fff" d="M7653.21,702.225C7650.15,703.806 7647.11,705.343 7644.1,706.834C7634.92,702.291 7625.47,697.313 7616.15,692.001C7608.73,687.767 7598.4,689.144 7593.1,695.075C7587.79,701.006 7589.52,709.258 7596.94,713.492C7609.92,720.893 7623.15,727.687 7635.65,733.627L7644.1,737.641L7652.55,733.627C7658.63,730.74 7664.88,727.652 7671.18,724.39C7678.84,720.428 7681.03,712.247 7676.07,706.13C7671.11,700.014 7660.87,698.264 7653.21,702.225ZM7742.78,634.945L7742.25,635.702C7734.1,648.15 7720.22,660.318 7704.07,671.771C7697.24,676.61 7696.62,684.962 7702.68,690.411C7708.74,695.86 7719.2,696.355 7726.02,691.516C7745.36,677.799 7761.64,662.989 7771.32,648.283C7771.45,648.106 7771.57,647.928 7771.69,647.75C7776.12,641.377 7773.23,633.335 7765.25,629.801C7757.27,626.267 7747.2,628.572 7742.78,634.945ZM7568.22,659.528C7559.03,651.786 7551.29,643.85 7546.07,635.872L7545.96,635.703C7542.07,630.168 7538.85,624.801 7536.19,619.491C7532.8,612.726 7523.17,609.433 7514.7,612.142C7506.23,614.851 7502.11,622.542 7505.5,629.307C7508.65,635.589 7512.44,641.94 7516.89,648.29C7523.39,658.169 7532.84,668.097 7544.22,677.693C7550.5,682.982 7560.97,683.206 7567.59,678.194C7574.22,673.181 7574.5,664.818 7568.22,659.528ZM7746.88,552.297C7758.46,561.183 7762.68,574.866 7761.06,590.397C7760.3,597.659 7767.07,604.045 7776.17,604.648C7785.26,605.251 7793.25,599.845 7794.01,592.583C7796.55,568.201 7787.97,547.207 7769.79,533.258C7763.21,528.209 7752.74,528.375 7746.42,533.629C7740.09,538.883 7740.3,547.248 7746.88,552.297ZM7527.71,574.794C7529.55,565.395 7534.3,557.273 7542.42,551.484C7546.27,548.741 7550.85,546.527 7555.86,544.874C7564.29,542.09 7568.31,534.363 7564.82,527.629C7561.34,520.894 7551.66,517.687 7543.23,520.47C7534.7,523.284 7526.96,527.112 7520.41,531.779L7520.41,531.779C7506.75,541.511 7498.14,554.908 7495.04,570.71C7493.63,577.909 7499.81,584.669 7508.82,585.796C7517.83,586.923 7526.3,581.993 7527.71,574.794ZM7644.1,536.826C7637.09,531.165 7629.34,526.698 7621.21,523.31C7613.12,519.94 7603.13,522.45 7598.91,528.911C7594.69,535.371 7597.83,543.353 7605.92,546.723C7615.13,550.562 7623.5,556.593 7630.02,565.054L7630.08,565.127L7630.19,565.275L7630.41,565.527L7630.49,565.624L7630.53,565.674L7630.64,565.807L7630.89,566.071L7630.98,566.168L7631.02,566.211L7631.13,566.322L7631.39,566.572L7631.5,566.686L7631.55,566.732L7631.65,566.821L7631.89,567.036L7632.05,567.179L7632.12,567.232L7632.2,567.3L7632.41,567.472L7632.63,567.645L7632.71,567.708L7632.78,567.761L7632.96,567.888L7633.23,568.086L7633.34,568.159L7633.4,568.2L7633.54,568.292L7633.85,568.499L7633.99,568.583L7634.05,568.618L7634.17,568.688L7634.5,568.886L7634.66,568.976L7634.73,569.012L7634.85,569.075L7635.16,569.245L7635.35,569.336L7635.44,569.383L7635.59,569.451L7635.85,569.577L7636.03,569.657L7636.18,569.724L7636.37,569.805L7636.55,569.882L7636.7,569.94L7636.92,570.031L7637.17,570.122L7637.27,570.158L7637.37,570.191L7637.68,570.306L7637.98,570.397L7638,570.406L7638.03,570.416C7639.52,570.89 7641.06,571.175 7642.61,571.284L7642.62,571.285L7642.66,571.287L7643.2,571.321L7643.36,571.324L7643.41,571.327L7643.61,571.331L7643.99,571.339L7644.1,571.338L7644.21,571.339L7644.59,571.331L7644.79,571.327L7644.85,571.324L7645.01,571.321L7645.55,571.287L7645.59,571.285L7645.6,571.284C7647.14,571.174 7648.68,570.887 7650.17,570.416L7650.2,570.406L7650.23,570.397L7650.52,570.306L7650.84,570.191L7650.94,570.158L7651.03,570.122L7651.28,570.031L7651.5,569.94L7651.65,569.882L7651.83,569.805L7652.03,569.724L7652.17,569.657L7652.36,569.577L7652.62,569.451L7652.76,569.383L7652.85,569.336L7653.04,569.245L7653.36,569.075L7653.48,569.012L7653.54,568.976L7653.71,568.886L7654.04,568.688L7654.16,568.618L7654.21,568.583L7654.35,568.499L7654.66,568.292L7654.81,568.2L7654.86,568.159L7654.98,568.086L7655.24,567.888L7655.42,567.761L7655.49,567.708L7655.58,567.645L7655.79,567.472L7656.01,567.3L7656.09,567.232L7656.15,567.179L7656.31,567.036L7656.56,566.821L7656.65,566.732L7656.7,566.686L7656.82,566.572L7657.08,566.322L7657.18,566.211L7657.23,566.168L7657.31,566.071L7657.56,565.807L7657.67,565.674L7657.72,565.624L7657.8,565.527L7658.01,565.275L7658.12,565.127L7658.18,565.054C7668.64,551.473 7683.96,544.208 7699.63,542.076C7708.63,540.852 7714.68,534.026 7713.15,526.843C7711.62,519.659 7703.07,514.821 7694.08,516.045C7676.24,518.472 7658.59,525.091 7644.1,536.826Z" transform="matrix(.90734 0 0 1.13609 -6656.59 -275.148)"/></svg>